<?xml version="1.0" encoding="UTF-8"?>
<svg width="20px" height="20px" viewBox="0 0 20 20" version="1.1" xmlns="http://www.w3.org/2000/svg" xmlns:xlink="http://www.w3.org/1999/xlink">
    <!-- Generator: Sketch 50 (54983) - http://www.bohemiancoding.com/sketch -->
    <title>Shape</title>
    <desc>Created with Sketch.</desc>
    <defs></defs>
    <g id="Page-1" stroke="none" stroke-width="1" fill="none" fill-rule="evenodd">
        <g id="Market-desktop" transform="translate(-1200.000000, -462.000000)" fill="#767673" fill-rule="nonzero">
            <g id="Item-1" transform="translate(170.000000, 170.000000)">
                <g id="social" transform="translate(1030.000000, 292.000000)">
                    <path d="M18.8966667,0 L1.10333333,0 C0.494166667,0 0,0.494166667 0,1.10333333 L0,18.8966667 C0,19.5066667 0.494166667,20 1.10333333,20 L10.6816667,20 L10.6816667,12.255 L8.07416667,12.255 L8.07416667,9.2375 L10.6816667,9.2375 L10.6816667,7.00833333 C10.6816667,4.42583333 12.26,3.02083333 14.5641667,3.02083333 C15.6683333,3.02083333 16.6175,3.10166667 16.8941667,3.13833333 L16.8941667,5.83833333 L15.2933333,5.83833333 C14.0433333,5.83833333 13.8,6.43916667 13.8,7.31416667 L13.8,9.24 L16.7866667,9.24 L16.3991667,12.265 L13.8,12.265 L13.8,20 L18.8958333,20 C19.5066667,20 20,19.5066667 20,18.8966667 L20,1.10333333 C20,0.494166667 19.5066667,0 18.8966667,0" id="Shape"></path>
                </g>
            </g>
        </g>
    </g>
</svg>