<?xml version="1.0" encoding="UTF-8"?>
<svg width="168px" height="24px" viewBox="0 0 168 24" version="1.1" xmlns="http://www.w3.org/2000/svg" xmlns:xlink="http://www.w3.org/1999/xlink">
    <!-- Generator: Sketch 50 (54983) - http://www.bohemiancoding.com/sketch -->
    <title>logo</title>
    <desc>Created with Sketch.</desc>
    <defs></defs>
    <g id="Page-1" stroke="none" stroke-width="1" fill="none" fill-rule="evenodd">
        <g id="Market-desktop" transform="translate(-172.000000, -82.000000)" fill="#000000">
            <path d="M199.979275,105.541462 C200.05148,105.541462 200.087581,105.614799 200.087581,105.761476 C200.087581,105.908152 200.05148,105.981489 199.979275,105.981489 C199.233157,105.981489 198.643492,105.969266 198.210262,105.94482 L195.719204,105.908151 L193.408658,105.94482 C193.023565,105.969266 192.482036,105.981489 191.784055,105.981489 C191.735918,105.981489 191.71185,105.908152 191.71185,105.761476 C191.71185,105.614799 191.735918,105.541462 191.784055,105.541462 C192.602377,105.541462 193.210093,105.474236 193.60722,105.339783 C194.004348,105.205329 194.269095,104.966983 194.401471,104.624738 C194.533847,104.282493 194.575965,103.744687 194.527829,103.011305 L193.877988,86.3269354 L185.646666,105.724807 C185.598529,105.822591 185.502257,105.871482 185.357847,105.871482 C185.237506,105.871482 185.1292,105.822591 185.032927,105.724807 L176.151763,86.546949 L175.826843,101.984574 C175.802774,103.280217 176.019386,104.196931 176.476684,104.734745 C176.933982,105.272559 177.740258,105.541462 178.895537,105.541462 C178.943674,105.541462 178.967742,105.614799 178.967742,105.761476 C178.967742,105.908152 178.943674,105.981489 178.895537,105.981489 C178.221625,105.981489 177.704164,105.969266 177.343139,105.94482 L175.393615,105.908151 L173.516296,105.94482 C173.17934,105.969266 172.697981,105.981489 172.072205,105.981489 C172.024068,105.981489 172,105.908152 172,105.761476 C172,105.614799 172.024068,105.541462 172.072205,105.541462 C173.083074,105.541462 173.811129,105.266448 174.256393,104.716411 C174.701657,104.166374 174.936319,103.255771 174.960388,101.984574 L175.285308,84.9701844 C174.563259,83.9923411 173.576473,83.5034267 172.324921,83.5034267 C172.276784,83.5034267 172.252716,83.4300895 172.252716,83.283413 C172.252716,83.1367365 172.276784,83.0633994 172.324921,83.0633994 L173.660705,83.1000683 C173.901388,83.1245144 174.23834,83.1367373 174.671569,83.1367373 C175.104799,83.1367373 175.471835,83.1245144 175.772689,83.1000683 C176.073543,83.0756222 176.308206,83.0633994 176.476684,83.0633994 C176.789572,83.0633994 177.048303,83.1795165 177.252883,83.4117543 C177.457464,83.6439921 177.752296,84.1634636 178.137389,84.9701844 L186.1882,102.204588 L194.058499,83.980123 C194.323251,83.3689708 194.68427,83.0633994 195.141568,83.0633994 C195.261909,83.0633994 195.436402,83.0756222 195.665051,83.1000683 C195.8937,83.1245144 196.200566,83.1367373 196.585659,83.1367373 L198.282467,83.1000683 C198.547218,83.0756222 198.94434,83.0633994 199.473843,83.0633994 C199.546047,83.0633994 199.582149,83.1367365 199.582149,83.283413 C199.582149,83.4300895 199.546047,83.5034267 199.473843,83.5034267 C198.270427,83.5034267 197.409998,83.6806582 196.892529,84.0351264 C196.37506,84.3895946 196.128364,85.0557404 196.152432,86.0335838 L196.874478,103.011305 C196.898546,103.769133 196.988801,104.319162 197.145245,104.661407 C197.301689,105.003652 197.584487,105.235887 197.993649,105.358117 C198.40281,105.480348 199.064679,105.541462 199.979275,105.541462 Z M231.095437,105.541462 C231.19171,105.541462 231.239846,105.614799 231.239846,105.761476 C231.239846,105.908152 231.19171,105.981489 231.095437,105.981489 C230.638139,105.981489 229.928135,105.957044 228.965402,105.908151 C228.002669,105.859259 227.304699,105.834813 226.871469,105.834813 C226.341966,105.834813 225.668064,105.859259 224.849741,105.908151 C224.079555,105.957044 223.48989,105.981489 223.080729,105.981489 C222.984455,105.981489 222.93632,105.908152 222.93632,105.761476 C222.93632,105.614799 222.984455,105.541462 223.080729,105.541462 C223.971256,105.541462 224.621091,105.455902 225.030252,105.284779 C225.439414,105.113657 225.643991,104.820308 225.643991,104.404725 C225.643991,104.062479 225.48755,103.536897 225.174662,102.82796 L221.961558,95.8975297 L213.369213,95.8975297 L211.094769,101.324533 C210.757812,102.1557 210.589336,102.827957 210.589336,103.341325 C210.589336,104.099154 210.884169,104.655294 211.473843,105.009762 C212.063516,105.36423 212.948013,105.541462 214.127361,105.541462 C214.247702,105.541462 214.307872,105.614799 214.307872,105.761476 C214.307872,105.908152 214.247702,105.981489 214.127361,105.981489 C213.694131,105.981489 213.068364,105.957044 212.250042,105.908151 C211.335446,105.859259 210.541203,105.834813 209.867291,105.834813 C209.241515,105.834813 208.519476,105.859259 207.701153,105.908151 C206.979104,105.957044 206.377405,105.981489 205.896039,105.981489 C205.775697,105.981489 205.715527,105.908152 205.715527,105.761476 C205.715527,105.614799 205.775697,105.541462 205.896039,105.541462 C206.569952,105.541462 207.141565,105.413122 207.610898,105.156438 C208.08023,104.899754 208.525487,104.447508 208.946682,103.799687 C209.367878,103.151866 209.831186,102.216817 210.33662,100.994513 L217.954204,82.7333789 C218.00234,82.6600406 218.086578,82.623372 218.20692,82.623372 C218.327261,82.623372 218.399465,82.6600406 218.423533,82.7333789 L226.943674,100.957844 C227.761996,102.766854 228.459967,103.983029 229.037607,104.606404 C229.615246,105.229779 230.301183,105.541462 231.095437,105.541462 Z M213.658031,95.1641508 L221.636637,95.1641508 L217.412669,86.1069217 L213.658031,95.1641508 Z M260.875815,105.541462 C260.923951,105.541462 260.948019,105.614799 260.948019,105.761476 C260.948019,105.908152 260.923951,105.981489 260.875815,105.981489 L256.218619,105.981489 C255.616912,105.981489 254.485718,104.966992 252.825004,102.937967 C251.164291,100.908942 249.190718,98.12213 246.904229,94.5774477 C246.254384,94.7241242 245.580482,94.7974614 244.8825,94.7974614 C244.738091,94.7974614 244.196562,94.7607928 243.257897,94.6874545 L243.257897,103.011305 C243.257897,103.769133 243.330101,104.319162 243.474511,104.661407 C243.618921,105.003652 243.901719,105.235887 244.322915,105.358117 C244.74411,105.480348 245.411996,105.541462 246.326592,105.541462 C246.398797,105.541462 246.434899,105.614799 246.434899,105.761476 C246.434899,105.908152 246.398797,105.981489 246.326592,105.981489 C245.580474,105.981489 244.990809,105.969266 244.55758,105.94482 L242.066522,105.908151 L239.611566,105.94482 C239.178336,105.969266 238.564604,105.981489 237.770349,105.981489 C237.722213,105.981489 237.698145,105.908152 237.698145,105.761476 C237.698145,105.614799 237.722213,105.541462 237.770349,105.541462 C238.684945,105.541462 239.358848,105.480348 239.792078,105.358117 C240.225307,105.235887 240.52014,104.997541 240.676584,104.643073 C240.833028,104.288605 240.911249,103.744687 240.911249,103.011305 L240.911249,86.0335838 C240.911249,85.3002013 240.839045,84.7623955 240.694635,84.4201503 C240.550225,84.0779051 240.267426,83.8395594 239.846231,83.7051059 C239.425036,83.5706524 238.75715,83.5034267 237.842554,83.5034267 C237.770349,83.5034267 237.734247,83.4300895 237.734247,83.283413 C237.734247,83.1367365 237.770349,83.0633994 237.842554,83.0633994 L239.611566,83.1000683 C240.622435,83.1489605 241.440746,83.1734062 242.066522,83.1734062 C242.596025,83.1734062 243.089418,83.1611833 243.546716,83.1367373 C244.004014,83.1122912 244.389101,83.0878455 244.701989,83.0633994 C245.592517,82.9900611 246.398793,82.9533925 247.120842,82.9533925 C249.022239,82.9533925 250.490384,83.3934155 251.525322,84.2734745 C252.560259,85.1535336 253.07772,86.326928 253.07772,87.7936931 C253.07772,89.1137817 252.69865,90.3055104 251.940498,91.3689151 C251.182346,92.4323198 250.177509,93.2695857 248.925957,93.8807378 C250.947695,96.838714 252.650503,99.1549458 254.034431,100.829503 C255.418359,102.504059 256.645824,103.708011 257.716864,104.441394 C258.787904,105.174776 259.840877,105.541462 260.875815,105.541462 Z M243.257897,93.8073999 C243.859605,93.9051842 244.56961,93.9540757 245.387932,93.9540757 C247.265261,93.9540757 248.607049,93.5384985 249.413338,92.7073316 C250.219626,91.8761647 250.622764,90.5927645 250.622764,88.8570925 C250.622764,86.9502979 250.207592,85.5813377 249.377236,84.7501708 C248.546879,83.9190039 247.337464,83.5034267 245.748955,83.5034267 C244.810291,83.5034267 244.160456,83.6745467 243.799432,84.0167919 C243.438407,84.3590371 243.257897,85.0557401 243.257897,86.1069217 L243.257897,93.8073999 Z M288.670567,105.541462 C288.742772,105.541462 288.778873,105.614799 288.778873,105.761476 C288.778873,105.908152 288.742772,105.981489 288.670567,105.981489 L284.62711,105.981489 C284.434564,105.981489 284.091595,105.987601 283.598195,105.999824 C283.104794,106.012047 282.412841,105.388681 281.522313,104.129708 C280.631786,102.870734 279.777373,101.715674 278.959051,100.664492 L273.4354,93.5873862 L272.244025,94.7607924 L272.244025,103.011305 C272.244025,103.744687 272.316229,104.288605 272.460638,104.643073 C272.605048,104.997541 272.887847,105.235887 273.309042,105.358117 C273.730238,105.480348 274.398123,105.541462 275.312719,105.541462 C275.384924,105.541462 275.421026,105.614799 275.421026,105.761476 C275.421026,105.908152 275.384924,105.981489 275.312719,105.981489 C274.59067,105.981489 274.013039,105.969266 273.579809,105.94482 L271.052649,105.908151 L268.597693,105.94482 C268.164464,105.969266 267.562765,105.981489 266.792579,105.981489 C266.744442,105.981489 266.720374,105.908152 266.720374,105.761476 C266.720374,105.614799 266.744442,105.541462 266.792579,105.541462 C267.707175,105.541462 268.375061,105.480348 268.796256,105.358117 C269.217452,105.235887 269.506267,104.997541 269.662711,104.643073 C269.819155,104.288605 269.897376,103.744687 269.897376,103.011305 L269.897376,86.0335838 C269.897376,85.3002013 269.825172,84.7623955 269.680762,84.4201503 C269.536352,84.0779051 269.253554,83.8395594 268.832358,83.7051059 C268.411163,83.5706524 267.743277,83.5034267 266.828681,83.5034267 C266.780545,83.5034267 266.756477,83.4300895 266.756477,83.283413 C266.756477,83.1367365 266.780545,83.0633994 266.828681,83.0633994 L268.633796,83.1000683 C269.644665,83.1489605 270.450941,83.1734062 271.052649,83.1734062 C271.75063,83.1734062 272.605043,83.1489605 273.615912,83.1000683 L275.312719,83.0633994 C275.384924,83.0633994 275.421026,83.1367365 275.421026,83.283413 C275.421026,83.4300895 275.384924,83.5034267 275.312719,83.5034267 C274.422192,83.5034267 273.76634,83.5767638 273.345145,83.7234404 C272.923949,83.8701169 272.635134,84.1206855 272.47869,84.4751537 C272.322246,84.8296219 272.244025,85.3735392 272.244025,86.1069217 L272.244025,93.8440688 L279.969915,86.0335838 C280.764169,85.226863 281.16129,84.6279429 281.16129,84.2368056 C281.16129,83.7478839 280.451286,83.5034267 279.031255,83.5034267 C278.983119,83.5034267 278.959051,83.4300895 278.959051,83.283413 C278.959051,83.1367365 278.983119,83.0633994 279.031255,83.0633994 L280.583654,83.1000683 C281.546386,83.1489605 282.424866,83.1734062 283.219121,83.1734062 C284.013375,83.1734062 284.84372,83.1489605 285.710179,83.1000683 L287.045964,83.0633994 C287.118169,83.0633994 287.15427,83.1367365 287.15427,83.283413 C287.15427,83.4300895 287.118169,83.5034267 287.045964,83.5034267 C286.059163,83.5034267 285.012207,83.7234382 283.905064,84.1634677 C282.797922,84.6034972 281.763,85.3002002 280.800267,86.2535975 L275.096106,91.9372838 L280.294835,98.6843694 C282.051822,101.006747 283.393611,102.644611 284.320241,103.598008 C285.246871,104.551405 285.962892,105.113657 286.468327,105.284779 C286.973762,105.455902 287.707834,105.541462 288.670567,105.541462 Z M311.158282,100.517817 C311.158282,100.468924 311.206418,100.444479 311.302691,100.444479 C311.374896,100.444479 311.441083,100.456702 311.501254,100.481148 C311.561424,100.505594 311.591509,100.542262 311.591509,100.591154 C311.374894,102.131258 311.266589,103.744675 311.266589,105.431455 C311.266589,105.627024 311.22447,105.767587 311.140231,105.853148 C311.055992,105.938709 310.905567,105.981489 310.688952,105.981489 L295.562093,105.981489 C295.513956,105.981489 295.489888,105.908152 295.489888,105.761476 C295.489888,105.614799 295.513956,105.541462 295.562093,105.541462 C296.476689,105.541462 297.144574,105.480348 297.56577,105.358117 C297.986965,105.235887 298.275781,104.997541 298.432225,104.643073 C298.588669,104.288605 298.66689,103.744687 298.66689,103.011305 L298.66689,86.0335838 C298.66689,85.3002013 298.588669,84.7623955 298.432225,84.4201503 C298.275781,84.0779051 297.986965,83.8395594 297.56577,83.7051059 C297.144574,83.5706524 296.476689,83.5034267 295.562093,83.5034267 C295.513956,83.5034267 295.489888,83.4300895 295.489888,83.283413 C295.489888,83.1367365 295.513956,83.0633994 295.562093,83.0633994 L310.075213,83.0633994 C310.291828,83.0633994 310.400134,83.1734051 310.400134,83.3934199 L310.472338,87.9036999 C310.472338,87.9770382 310.412168,88.0198182 310.291827,88.0320413 C310.171485,88.0442643 310.099281,88.0137071 310.075213,87.9403689 C310.003008,86.6447264 309.617921,85.6363405 308.91994,84.915181 C308.221959,84.1940215 307.295343,83.8334472 306.140064,83.8334472 L303.937824,83.8334472 C303.095433,83.8334472 302.475683,83.9006729 302.078556,84.0351264 C301.681429,84.1695798 301.404647,84.4018142 301.248203,84.7318363 C301.091759,85.0618585 301.013538,85.5568842 301.013538,86.2169285 L301.013538,93.6607241 L305.418018,93.6607241 C306.573297,93.6607241 307.397624,93.4651584 307.891025,93.074021 C308.384425,92.6828837 308.631122,92.0228493 308.631122,91.0938981 C308.631122,91.0450059 308.703325,91.0205602 308.847735,91.0205602 C308.992145,91.0205602 309.064349,91.0450059 309.064349,91.0938981 L309.028247,94.0640825 C309.028247,94.773019 309.040281,95.3108248 309.064349,95.677516 L309.100451,97.4376253 C309.100451,97.4865175 309.028247,97.5109632 308.883838,97.5109632 C308.739428,97.5109632 308.667224,97.4865175 308.667224,97.4376253 C308.667224,96.3619976 308.408493,95.5919575 307.891025,95.1274819 C307.373556,94.6630063 306.513127,94.4307719 305.309711,94.4307719 L301.013538,94.4307719 L301.013538,102.864629 C301.013538,103.549119 301.085742,104.050257 301.230152,104.368056 C301.374562,104.685855 301.639309,104.905866 302.024402,105.028097 C302.409495,105.150327 303.011194,105.211441 303.829517,105.211441 L306.7177,105.211441 C307.872979,105.211441 308.835697,104.795864 309.605883,103.964697 C310.376069,103.13353 310.89353,101.984582 311.158282,100.517817 Z M325.234163,83.7234404 C323.71786,83.7234404 322.580649,84.1145718 321.822497,84.8968466 C321.064345,85.6791213 320.516799,87.0114129 320.179843,88.8937614 C320.179843,88.9426536 320.113656,88.9670993 319.98128,88.9670993 C319.848905,88.9670993 319.782718,88.9426536 319.782718,88.8937614 C319.878991,88.0137024 319.987297,86.8647536 320.107638,85.4468807 C320.22798,84.0290078 320.28815,82.9656191 320.28815,82.2566826 C320.28815,82.1344522 320.354337,82.0733379 320.486712,82.0733379 C320.619088,82.0733379 320.685275,82.1344522 320.685275,82.2566826 C320.685275,82.7944965 321.33511,83.0633994 322.634799,83.0633994 C324.680605,83.1367376 327.099434,83.1734062 329.891359,83.1734062 C331.311389,83.1734062 332.815636,83.1489605 334.404145,83.1000683 L336.859101,83.0633994 C337.72556,83.0633994 338.369378,83.0022851 338.790573,82.8800547 C339.211769,82.7578242 339.482533,82.513367 339.602875,82.1466758 C339.626943,82.0488914 339.699147,82 339.819489,82 C339.93983,82 340,82.0488914 340,82.1466758 C339.927795,82.8556122 339.855591,83.9312238 339.783386,85.3735428 C339.711181,86.8158618 339.675079,87.9892563 339.675079,88.8937614 C339.675079,88.9426536 339.602876,88.9670993 339.458466,88.9670993 C339.314056,88.9670993 339.241852,88.9426536 339.241852,88.8937614 C339.169647,86.9869668 338.78456,85.6485638 338.086579,84.8785121 C337.388598,84.1084604 336.233336,83.7234404 334.620759,83.7234404 C333.537685,83.7234404 332.76751,83.7723318 332.310212,83.8701161 C331.852914,83.9679005 331.540031,84.1756891 331.371553,84.4934882 C331.203075,84.8112873 331.118837,85.3490931 331.118837,86.1069217 L331.118837,103.011305 C331.118837,103.769133 331.203075,104.319162 331.371553,104.661407 C331.540031,105.003652 331.864948,105.235887 332.346315,105.358117 C332.827681,105.480348 333.585821,105.541462 334.620759,105.541462 C334.692964,105.541462 334.729066,105.614799 334.729066,105.761476 C334.729066,105.908152 334.692964,105.981489 334.620759,105.981489 C333.826504,105.981489 333.188704,105.969266 332.707337,105.94482 L329.891359,105.908151 L327.183687,105.94482 C326.702321,105.969266 326.040452,105.981489 325.198061,105.981489 C325.149925,105.981489 325.125857,105.908152 325.125857,105.761476 C325.125857,105.614799 325.149925,105.541462 325.198061,105.541462 C326.232999,105.541462 326.991139,105.480348 327.472505,105.358117 C327.953872,105.235887 328.284806,104.997541 328.465318,104.643073 C328.645831,104.288605 328.736086,103.744687 328.736086,103.011305 L328.736086,86.0335838 C328.736086,85.2757552 328.651848,84.7440608 328.48337,84.4384848 C328.314891,84.1329087 328.002008,83.937343 327.54471,83.8517817 C327.087412,83.7662204 326.317238,83.7234404 325.234163,83.7234404 Z" id="logo"></path>
        </g>
    </g>
</svg>