<?xml version="1.0" encoding="UTF-8"?>
<svg width="20px" height="17px" viewBox="0 0 20 17" version="1.1" xmlns="http://www.w3.org/2000/svg" xmlns:xlink="http://www.w3.org/1999/xlink">
    <!-- Generator: Sketch 50 (54983) - http://www.bohemiancoding.com/sketch -->
    <title>Shape</title>
    <desc>Created with Sketch.</desc>
    <defs></defs>
    <g id="Page-1" stroke="none" stroke-width="1" fill="none" fill-rule="evenodd">
        <g id="Market-desktop" transform="translate(-1240.000000, -465.000000)" fill="#767673" fill-rule="nonzero">
            <g id="Item-1" transform="translate(170.000000, 170.000000)">
                <g id="social" transform="translate(1030.000000, 292.000000)">
                    <path d="M59.960835,5.02445276 C59.2233657,5.36345927 58.4358985,5.59440201 57.6067664,5.69985134 C58.4517312,5.16737581 59.1017041,4.32813862 59.4091913,3.32680576 C58.6167243,3.81047829 57.7384276,4.16255703 56.8034665,4.35864049 C56.056831,3.52288922 54.9927086,3 53.8110912,3 C51.5470189,3 49.711262,4.91987492 49.711262,7.28507715 C49.711262,7.62495514 49.7487605,7.95176091 49.817091,8.26462296 C46.4088996,8.09642692 43.3881922,6.38483621 41.3666097,3.79740606 C41.0107912,4.42661609 40.8116328,5.15778951 40.8116328,5.95432409 C40.8116328,7.44455836 41.5366026,8.75439586 42.6348902,9.52391449 C41.9624182,9.50125596 41.3299446,9.30778695 40.7783009,8.98708156 L40.7783009,9.04024196 C40.7783009,11.1187266 42.1890755,12.8521044 44.0664972,13.2468857 C43.7223449,13.3436202 43.3590267,13.3959092 42.9865422,13.3959092 C42.7248865,13.3959092 42.4740636,13.3697647 42.2232407,13.3209617 C42.7490521,15.0229661 44.2606558,16.2639565 46.0597475,16.2988158 C44.6598058,17.4483006 42.8857131,18.1332855 40.9749594,18.1332855 C40.6499729,18.1332855 40.3258198,18.1132414 40,18.0748962 C41.8240907,19.2897421 43.9731678,20 46.2972376,20 C53.8419233,20 57.9625849,13.4673707 57.9625849,7.8114523 C57.9625849,7.62931255 57.9625849,7.44542985 57.9500854,7.26241862 C58.7508854,6.6619675 59.4500229,5.90290665 60,5.0418824 L59.960835,5.02445276 Z" id="Shape"></path>
                </g>
            </g>
        </g>
    </g>
</svg>